# xmcd
#
# Track frame offsets: 
#        150
#        14070
#        26414
#        37278
#        49019
#        70897
#        81820
#
# Disc length: 1275 seconds
#
# Revision: 0
# Processed by: cddbd v1.5.2PL0 Copyright (c) Steve Scherf et al.
# Submitted via: ExactAudioCopy v1.0b4
#
DISCID=5a04f907
DTITLE=Maurice Ulmer Blues Band - Maurice Ulmer Blues Band
DYEAR=2015
DGENRE=Blues
TTITLE0=Come On Over Baby
TTITLE1=Love Me Like You Used To
TTITLE2=Hey Mama
TTITLE3=Rock N Roll Blues
TTITLE4=Oh My Love
TTITLE5=Treat Me Right
TTITLE6=Rocking Guitars
EXTD=
EXTT0=
EXTT1=
EXTT2=
EXTT3=
EXTT4=
EXTT5=
EXTT6=
PLAYORDER=
